<svg xmlns="http://www.w3.org/2000/svg" viewBox="0 0 64 64" width="64" height="64">
  <path d="M7.7 26.6h48.6v27c0 1.5-1.2 2.7-2.7 2.7H10.4c-1.5 0-2.7-1.2-2.7-2.7v-27zM23.9 32v5.4h16.2V32H23.9zM5 10.4c0-1.5 1.2-2.7 2.7-2.7h48.6c1.5 0 2.7 1.2 2.7 2.7v10.8H5V10.4z" fill="#a37800"/>
  <g transform="matrix(4 0 0 4 256 0)">
    <circle cx="-52" cy="12" r="4" fill="#4caf50"/>
    <path d="M-49.2 11.3c-.1-.1-.2-.1-.3-.1h-1.8V9.4c0-.1 0-.2-.1-.3 0-.1-.1-.1-.2-.1h-.8c-.1 0-.2 0-.3.1-.1.1-.1.2-.1.3v1.8h-1.8c-.1 0-.2 0-.3.1-.1.1-.1.2-.1.3v.8c0 .1 0 .2.1.3.1.1.2.1.3.1h1.8v1.8c0 .1 0 .2.1.3s.2.1.3.1h.8c.1 0 .2 0 .3-.1s.1-.2.1-.3v-1.8h1.8c.1 0 .2 0 .3-.1.1-.1.1-.2.1-.3v-.8c0-.1-.1-.2-.2-.3z" fill="#fff"/>
  </g>
</svg>