<?xml version="1.0" encoding="UTF-8"?>
<!DOCTYPE svg PUBLIC "-//W3C//DTD SVG 1.1//EN" "http://www.w3.org/Graphics/SVG/1.1/DTD/svg11.dtd">
<svg version="1.1" xmlns="http://www.w3.org/2000/svg" xmlns:xlink="http://www.w3.org/1999/xlink" x="0" y="0" width="64" height="64" viewBox="0, 0, 64, 64">
  <g id="paquet">
    <g>
      <path d="M8.667,17.5 L55.333,17.5 L55.333,52.333 L8.667,52.333 L8.667,17.5 z" fill="#FFBF00"/>
      <path d="M8.667,12.5 L31.333,12.5 L31.333,27.333 L8.667,27.333 L8.667,12.5 z" fill="#FFBF00"/>
    </g>
    <path d="M27.771,8 L33.104,13.333 L56,13.333 C57.473,13.333 58.667,14.527 58.667,16 L58.667,53.333 C58.667,54.806 57.473,56 56,56 L8,56 C6.527,56 5.333,54.806 5.333,53.333 L5.333,10.667 C5.333,9.194 6.527,8 8,8 L27.771,8 z M48,48 L37.333,48 L37.333,40 L42.667,40 L42.667,34.667 L37.333,34.667 L37.333,29.333 L42.667,29.333 L42.667,24 L37.333,24 L37.333,18.667 L30.896,18.667 L25.563,13.333 L10.667,13.333 L10.667,50.667 L53.333,50.667 L53.333,18.667 L42.667,18.667 L42.667,24 L48,24 L48,29.333 L42.667,29.333 L42.667,34.667 L48,34.667 L48,48 z" fill="#666666"/>
  </g>
</svg>
