<?xml version="1.0" encoding="UTF-8"?>
<!DOCTYPE svg PUBLIC "-//W3C//DTD SVG 1.1//EN" "http://www.w3.org/Graphics/SVG/1.1/DTD/svg11.dtd">
<svg version="1.1" xmlns="http://www.w3.org/2000/svg" xmlns:xlink="http://www.w3.org/1999/xlink" x="0" y="0" width="64" height="64" viewBox="0, 0, 64, 64">
  <g id="plugin">
    <g id="puzzle1" display="none">
      <path d="M47.125,19.75 L47.125,30.625 L54.375,30.625 L54.375,40.375 L47.125,40.375 L47.125,48.625 L44.875,48.625 L44.875,53.875 L35.375,53.875 L35.375,48.625 L21.5,48.625 L21.5,54.625 L9.5,54.625 L9.5,43.75 L15.625,43.75 L15.625,26.25 L9.5,26.25 L9.5,19.75 L23.25,19.75 L23.25,9.25 L33.375,9.25 L33.375,19.75 L47.125,19.75 z" fill="#FFDE47"/>
      <path d="M7.227,31.875 L10.766,31.875 C12.719,31.875 14.305,33.46 14.305,35.414 C14.305,37.368 12.719,38.953 10.766,38.953 L7.227,38.953 C5.531,38.953 3.688,40.317 3.688,42.492 L3.688,56.648 C3.688,58.595 5.28,60.188 7.227,60.188 L21.383,60.188 C23.124,60.188 24.922,58.823 24.922,56.648 L24.922,53.109 C24.922,51.156 26.507,49.57 28.461,49.57 C30.415,49.57 32,51.156 32,53.109 L32,56.648 C32,58.529 33.548,60.188 35.539,60.188 L46.156,60.188 C48.103,60.188 49.695,58.595 49.695,56.648 L49.695,46.031 C55.558,46.031 60.312,41.277 60.312,35.414 C60.312,29.552 55.558,24.797 49.695,24.797 L49.695,17.719 C49.695,15.772 48.103,14.18 46.156,14.18 L39.078,14.18 C39.078,8.317 34.323,3.563 28.461,3.563 C22.598,3.563 17.844,8.317 17.844,14.18 L7.227,14.18 C5.28,14.18 3.688,15.772 3.688,17.719 L3.688,28.336 C3.688,30.143 5.126,31.875 7.227,31.875 z M49.695,38.953 L42.617,38.953 L42.617,53.109 L39.078,53.109 C39.078,47.247 34.323,42.492 28.461,42.492 C22.598,42.492 17.844,47.247 17.844,53.109 L10.766,53.109 L10.766,46.031 C16.628,46.031 21.383,41.277 21.383,35.414 C21.383,29.552 16.628,24.797 10.766,24.797 L10.766,21.258 L24.922,21.258 L24.922,14.18 C24.922,12.226 26.507,10.641 28.461,10.641 C30.415,10.641 32,12.226 32,14.18 L32,21.258 L42.617,21.258 L42.617,31.875 L49.695,31.875 C51.649,31.875 53.234,33.46 53.234,35.414 C53.234,37.368 51.649,38.953 49.695,38.953 z" fill="#666666"/>
    </g>
    <path d="M53.571,30.527 L49.527,30.527 L49.527,19.741 C49.527,16.775 47.1,14.348 44.134,14.348 L33.348,14.348 L33.348,10.304 C33.348,6.529 30.382,3.562 26.607,3.562 C22.832,3.562 19.866,6.529 19.866,10.304 L19.866,14.348 L9.08,14.348 C6.114,14.348 3.688,16.775 3.688,19.741 L3.688,29.987 L7.732,29.987 C11.777,29.987 15.012,33.223 15.012,37.268 C15.012,41.312 11.777,44.548 7.732,44.548 L3.688,44.548 L3.688,54.795 C3.688,57.761 6.114,60.188 9.08,60.188 L19.327,60.188 L19.327,56.143 C19.327,52.098 22.562,48.862 26.607,48.862 C30.652,48.862 33.888,52.098 33.888,56.143 L33.888,60.188 L44.134,60.188 C47.1,60.188 49.527,57.761 49.527,54.795 L49.527,44.009 L53.571,44.009 C57.346,44.009 60.312,41.043 60.312,37.268 C60.312,33.493 57.346,30.527 53.571,30.527 L53.571,30.527 z" fill="#FFBF00" id="puzzle-fill"/>
    <g id="plus">
      <path d="M60.312,44.562 C60.312,53.399 53.149,60.562 44.312,60.562 C35.476,60.562 28.312,53.399 28.312,44.562 C28.312,35.726 35.476,28.562 44.312,28.562 C53.149,28.562 60.312,35.726 60.312,44.562 z" fill="#4CAF50"/>
      <path d="M55.513,41.763 C55.112,41.362 54.713,41.362 54.312,41.362 L47.112,41.362 L47.112,34.162 C47.112,33.763 47.112,33.362 46.713,32.963 C46.713,32.562 46.312,32.562 45.912,32.562 L42.713,32.562 C42.312,32.562 41.912,32.562 41.513,32.963 C41.112,33.362 41.112,33.763 41.112,34.162 L41.112,41.362 L33.912,41.362 C33.513,41.362 33.112,41.362 32.713,41.763 C32.312,42.162 32.312,42.562 32.312,42.963 L32.312,46.162 C32.312,46.562 32.312,46.963 32.713,47.362 C33.112,47.763 33.513,47.763 33.912,47.763 L41.112,47.763 L41.112,54.963 C41.112,55.362 41.112,55.763 41.513,56.162 C41.912,56.562 42.312,56.562 42.713,56.562 L45.912,56.562 C46.312,56.562 46.713,56.562 47.112,56.162 C47.513,55.763 47.513,55.362 47.513,54.963 L47.513,47.763 L54.713,47.763 C55.112,47.763 55.513,47.763 55.912,47.362 C56.312,46.963 56.312,46.562 56.312,46.162 L56.312,42.963 C56.312,42.562 55.912,42.162 55.513,41.763 z" fill="#FFFFFF"/>
    </g>
  </g>
</svg>
