<svg xmlns="http://www.w3.org/2000/svg" viewBox="0 0 64 64" width="64" height="64">
  <path d="M34.3 53.4v1.7c10.2 0 18.5-4.5 18.5-10.1h-3.1c-.1 4.6-6.9 8.4-15.4 8.4z" fill="#919191"/>
  <path d="M11.3 58.7H8.4c-2.6 0-4.8-2.1-4.8-4.8V18.3c0-2.6 2.1-4.8 4.8-4.8h2.9c2.6 0 4.8 2.1 4.8 4.8v35.6c0 2.6-2.2 4.8-4.8 4.8z"/>
  <path d="M30.2 58.7H7.7c-2.2 0-4-1.8-4-4v-2.5c0-2.2 1.8-4 4-4h22.5c2.2 0 4 1.8 4 4v2.5c.1 2.1-1.7 4-4 4zM23.6 41.9h36.6v3.2H23.6z"/>
  <path d="M42.6 41.8h-7.2c-3.2 0-5.7-2.6-5.7-5.7v-5.7h23v5.7c0 3.2-2.6 5.7-5.7 5.7h-4.4m5.4-16h5.3c1 0 1.8.8 1.8 1.8V31H27v-3.5c0-1 .8-1.8 1.8-1.8H34v-7h3.5v7h7v-7H48v7.1z" fill="#f43737"/>
</svg>
