<?xml version="1.0" encoding="UTF-8"?>
<!DOCTYPE svg PUBLIC "-//W3C//DTD SVG 1.1//EN" "http://www.w3.org/Graphics/SVG/1.1/DTD/svg11.dtd">
<svg version="1.1" xmlns="http://www.w3.org/2000/svg" xmlns:xlink="http://www.w3.org/1999/xlink" x="0" y="0" width="64" height="64" viewBox="0, 0, 64, 64">
  <g id="Calque_1">
    <path d="M34.3,53.4 L34.3,55.1 C44.5,55.1 52.8,50.6 52.8,45 L49.7,45 C49.6,49.6 42.8,53.4 34.3,53.4 z" fill="#888888"/>
    <path d="M11.3,58.7 L8.4,58.7 C5.8,58.7 3.6,56.6 3.6,53.9 L3.6,18.3 C3.6,15.7 5.7,13.5 8.4,13.5 L11.3,13.5 C13.9,13.5 16.1,15.6 16.1,18.3 L16.1,53.9 C16.1,56.5 13.9,58.7 11.3,58.7 z" fill="#666666"/>
    <path d="M30.2,58.7 L7.7,58.7 C5.5,58.7 3.7,56.9 3.7,54.7 L3.7,52.2 C3.7,50 5.5,48.2 7.7,48.2 L30.2,48.2 C32.4,48.2 34.2,50 34.2,52.2 L34.2,54.7 C34.3,56.8 32.5,58.7 30.2,58.7 z M23.6,41.9 L60.2,41.9 L60.2,45.1 L23.6,45.1 L23.6,41.9 z" fill="#666666"/>
    <path d="M52.962,24.5 C51.67,19.506 47.173,15.8 41.775,15.8 C36.379,15.8 31.88,19.506 30.587,24.5 L21.475,24.5 L21.475,30.3 L30.587,30.3 C31.88,35.296 36.379,39 41.775,39 C47.173,39 51.67,35.296 52.962,30.3 L62.075,30.3 L62.075,24.5 L52.962,24.5 z M41.775,33.2 C38.573,33.2 35.975,30.6 35.975,27.4 C35.975,24.198 38.573,21.6 41.775,21.6 C44.975,21.6 47.575,24.198 47.575,27.4 C47.575,30.6 44.975,33.2 41.775,33.2 z" fill="#1D83D4" id="cvs" display="none"/>
    <path d="M45.838,11.176 L28.756,24.526 L28.617,24.65 C27.821,25.283 27.338,26.289 27.328,27.332 L27.417,34.979 C27.43,35.811 28.005,36.563 28.815,36.761 L36.224,38.686 C37.252,38.958 38.31,38.705 39.107,38.071 L56.378,24.59 C57.737,23.513 58.025,21.492 56.948,20.133 L55.936,18.869 L50.346,11.739 C49.21,10.336 47.248,10.091 45.838,11.176 z M34.84,32.942 C33.949,33.641 32.622,33.463 31.923,32.572 C31.224,31.681 31.401,30.353 32.293,29.654 C33.184,28.955 34.512,29.133 35.21,30.024 C35.909,30.916 35.732,32.243 34.84,32.942 z" fill="#1D83D4" id="type" display="none"/>
    <path d="M60.815,24.893 L51.597,34.031 L49.293,31.747 L56.206,24.893 L49.293,18.039 L51.597,15.755 L60.815,24.893 z M26.479,24.893 L33.392,31.747 L31.088,34.031 L21.985,24.893 L31.203,15.755 L33.507,18.039 L26.479,24.893 z M37.655,39.4 L34.084,39.4 L44.684,10.5 L48.256,10.5 L37.655,39.4 z" fill="#1D83D4" id="api" display="none"/>
    <path d="M56.9,11.4 L63,17.6 L45.3,35.3 L36.5,26.5 L25,38 L18.8,31.8 L36.5,14.2 L45.3,22.9 L56.9,11.4 z" fill="#1D83D4" id="stats" display="none"/>
    <path d="M44.017,41.9 L36.817,41.9 C33.617,41.9 31.117,39.3 31.117,36.2 L31.117,30.5 L54.117,30.5 L54.117,36.2 C54.117,39.4 51.517,41.9 48.417,41.9 L44.017,41.9 M49.417,25.9 L54.717,25.9 C55.717,25.9 56.517,26.7 56.517,27.7 L56.517,31.1 L28.417,31.1 L28.417,27.6 C28.417,26.6 29.217,25.8 30.217,25.8 L35.417,25.8 L35.417,18.8 L38.917,18.8 L38.917,25.8 L45.917,25.8 L45.917,18.8 L49.417,18.8 L49.417,25.9 z" fill="#1C83D4" id="plug" display="none"/>
    <path d="M52.838,27.639 L50.893,27.639 L50.893,22.454 C50.893,21.028 49.727,19.861 48.301,19.861 L43.115,19.861 L43.115,17.916 C43.115,16.101 41.689,14.675 39.874,14.675 C38.059,14.675 36.633,16.101 36.633,17.916 L36.633,19.861 L31.447,19.861 C30.021,19.861 28.854,21.028 28.854,22.454 L28.854,27.38 L30.799,27.38 C32.743,27.38 34.299,28.936 34.299,30.88 C34.299,32.825 32.743,34.381 30.799,34.381 L28.854,34.381 L28.854,39.307 C28.854,40.733 30.021,41.9 31.447,41.9 L36.373,41.9 L36.373,39.955 C36.373,38.011 37.929,36.455 39.874,36.455 C41.818,36.455 43.374,38.011 43.374,39.955 L43.374,41.9 L48.301,41.9 C49.727,41.9 50.893,40.733 50.893,39.307 L50.893,34.121 L52.838,34.121 C54.653,34.121 56.079,32.695 56.079,30.88 C56.079,29.065 54.653,27.639 52.838,27.639 L52.838,27.639 z" fill="#1C83D4" id="puzzle-fill"/>
  </g>
</svg>
